<mxfile host="Electron" agent="Mozilla/5.0 (X11; Linux x86_64) AppleWebKit/537.36 (KHTML, like Gecko) draw.io/26.1.1 Chrome/132.0.6834.210 Electron/34.3.2 Safari/537.36" version="26.1.1" pages="4">
  <diagram name="1" id="XxaEcn1D0qPyR1fZYPSp">
    <mxGraphModel dx="830" dy="492" grid="1" gridSize="10" guides="1" tooltips="1" connect="1" arrows="1" fold="1" page="1" pageScale="1" pageWidth="340" pageHeight="220" math="0" shadow="0">
      <root>
        <mxCell id="T0aFZszhNgqpVuCYx-Jp-0" />
        <mxCell id="T0aFZszhNgqpVuCYx-Jp-1" parent="T0aFZszhNgqpVuCYx-Jp-0" />
        <mxCell id="_S6RzJJ14RBt0gjqpuyq-35" value="&lt;font style=&quot;font-size: 10px;&quot;&gt;6 - 1&lt;/font&gt;" style="edgeStyle=orthogonalEdgeStyle;rounded=0;orthogonalLoop=1;jettySize=auto;html=1;exitX=0.5;exitY=0;exitDx=0;exitDy=0;entryX=0;entryY=0;entryDx=0;entryDy=0;fillColor=#dae8fc;strokeColor=#6c8ebf;" parent="T0aFZszhNgqpVuCYx-Jp-1" source="_S6RzJJ14RBt0gjqpuyq-36" target="_S6RzJJ14RBt0gjqpuyq-40" edge="1">
          <mxGeometry relative="1" as="geometry" />
        </mxCell>
        <mxCell id="_S6RzJJ14RBt0gjqpuyq-36" value="1" style="rounded=0;whiteSpace=wrap;html=1;fontSize=14;fillColor=#dae8fc;strokeColor=#6c8ebf;fontColor=#333333;" parent="T0aFZszhNgqpVuCYx-Jp-1" vertex="1">
          <mxGeometry x="60" y="60" width="40" height="20" as="geometry" />
        </mxCell>
        <mxCell id="_S6RzJJ14RBt0gjqpuyq-37" value="3" style="rounded=0;whiteSpace=wrap;html=1;fontSize=14;fillColor=#f5f5f5;strokeColor=#666666;fontColor=#333333;" parent="T0aFZszhNgqpVuCYx-Jp-1" vertex="1">
          <mxGeometry x="60" y="80" width="40" height="20" as="geometry" />
        </mxCell>
        <mxCell id="_S6RzJJ14RBt0gjqpuyq-38" value="4" style="rounded=0;whiteSpace=wrap;html=1;fontSize=14;fillColor=#f5f5f5;strokeColor=#666666;fontColor=#333333;" parent="T0aFZszhNgqpVuCYx-Jp-1" vertex="1">
          <mxGeometry x="60" y="100" width="40" height="20" as="geometry" />
        </mxCell>
        <mxCell id="_S6RzJJ14RBt0gjqpuyq-39" value="5" style="rounded=0;whiteSpace=wrap;html=1;fillColor=#dae8fc;strokeColor=#6c8ebf;fontColor=#333333;" parent="T0aFZszhNgqpVuCYx-Jp-1" vertex="1">
          <mxGeometry x="140" y="60" width="40" height="20" as="geometry" />
        </mxCell>
        <mxCell id="_S6RzJJ14RBt0gjqpuyq-40" value="0" style="rounded=0;whiteSpace=wrap;html=1;fillColor=#d5e8d4;strokeColor=#82b366;fontColor=#333333;" parent="T0aFZszhNgqpVuCYx-Jp-1" vertex="1">
          <mxGeometry x="180" y="60" width="40" height="20" as="geometry" />
        </mxCell>
        <mxCell id="_S6RzJJ14RBt0gjqpuyq-42" value="6" style="rounded=0;whiteSpace=wrap;html=1;fontSize=14;fillColor=#f5f5f5;strokeColor=#666666;fontColor=#333333;" parent="T0aFZszhNgqpVuCYx-Jp-1" vertex="1">
          <mxGeometry x="260" y="60" width="40" height="40" as="geometry" />
        </mxCell>
        <mxCell id="_S6RzJJ14RBt0gjqpuyq-43" value="m" style="text;html=1;align=center;verticalAlign=middle;whiteSpace=wrap;rounded=0;fontSize=10;" parent="T0aFZszhNgqpVuCYx-Jp-1" vertex="1">
          <mxGeometry x="260" y="100" width="40" height="20" as="geometry" />
        </mxCell>
        <mxCell id="_S6RzJJ14RBt0gjqpuyq-44" value="indices" style="text;html=1;align=center;verticalAlign=middle;whiteSpace=wrap;rounded=0;fontSize=10;" parent="T0aFZszhNgqpVuCYx-Jp-1" vertex="1">
          <mxGeometry x="140" y="80" width="80" height="20" as="geometry" />
        </mxCell>
        <mxCell id="_S6RzJJ14RBt0gjqpuyq-45" value="nums" style="text;html=1;align=center;verticalAlign=middle;whiteSpace=wrap;rounded=0;fontSize=10;" parent="T0aFZszhNgqpVuCYx-Jp-1" vertex="1">
          <mxGeometry x="60" y="160" width="40" height="20" as="geometry" />
        </mxCell>
        <mxCell id="M0JT2sJg_n8GG57qIqw5-2" value="5" style="rounded=0;whiteSpace=wrap;html=1;fontSize=14;fillColor=#f5f5f5;strokeColor=#666666;fontColor=#333333;" vertex="1" parent="T0aFZszhNgqpVuCYx-Jp-1">
          <mxGeometry x="60" y="120" width="40" height="20" as="geometry" />
        </mxCell>
        <mxCell id="M0JT2sJg_n8GG57qIqw5-4" value="6" style="rounded=0;whiteSpace=wrap;html=1;fontSize=14;fillColor=#f5f5f5;strokeColor=#666666;fontColor=#333333;" vertex="1" parent="T0aFZszhNgqpVuCYx-Jp-1">
          <mxGeometry x="60" y="140" width="40" height="20" as="geometry" />
        </mxCell>
        <mxCell id="M0JT2sJg_n8GG57qIqw5-5" value="0" style="text;html=1;align=center;verticalAlign=middle;whiteSpace=wrap;rounded=0;fontSize=10;" vertex="1" parent="T0aFZszhNgqpVuCYx-Jp-1">
          <mxGeometry x="40" y="60" width="20" height="20" as="geometry" />
        </mxCell>
        <mxCell id="G3IpfiA9csgtdr19Ncoe-1" value="1" style="text;html=1;align=center;verticalAlign=middle;whiteSpace=wrap;rounded=0;fontSize=10;" vertex="1" parent="T0aFZszhNgqpVuCYx-Jp-1">
          <mxGeometry x="40" y="80" width="20" height="20" as="geometry" />
        </mxCell>
        <mxCell id="G3IpfiA9csgtdr19Ncoe-2" value="2" style="text;html=1;align=center;verticalAlign=middle;whiteSpace=wrap;rounded=0;fontSize=10;" vertex="1" parent="T0aFZszhNgqpVuCYx-Jp-1">
          <mxGeometry x="40" y="100" width="20" height="20" as="geometry" />
        </mxCell>
        <mxCell id="G3IpfiA9csgtdr19Ncoe-3" value="3" style="text;html=1;align=center;verticalAlign=middle;whiteSpace=wrap;rounded=0;fontSize=10;" vertex="1" parent="T0aFZszhNgqpVuCYx-Jp-1">
          <mxGeometry x="40" y="120" width="20" height="20" as="geometry" />
        </mxCell>
        <mxCell id="G3IpfiA9csgtdr19Ncoe-4" value="4" style="text;html=1;align=center;verticalAlign=middle;whiteSpace=wrap;rounded=0;fontSize=10;" vertex="1" parent="T0aFZszhNgqpVuCYx-Jp-1">
          <mxGeometry x="40" y="140" width="20" height="20" as="geometry" />
        </mxCell>
      </root>
    </mxGraphModel>
  </diagram>
  <diagram name="2" id="ePsB5KQ7u5S29FlXCp2l">
    <mxGraphModel dx="482" dy="286" grid="1" gridSize="10" guides="1" tooltips="1" connect="1" arrows="1" fold="1" page="1" pageScale="1" pageWidth="340" pageHeight="220" math="0" shadow="0">
      <root>
        <mxCell id="uol41dG8jqTRSERNkFw_-0" />
        <mxCell id="uol41dG8jqTRSERNkFw_-1" parent="uol41dG8jqTRSERNkFw_-0" />
        <mxCell id="uol41dG8jqTRSERNkFw_-2" value="&lt;font style=&quot;font-size: 10px;&quot;&gt;6 - 3&lt;/font&gt;" style="edgeStyle=orthogonalEdgeStyle;rounded=0;orthogonalLoop=1;jettySize=auto;html=1;exitX=0.5;exitY=0;exitDx=0;exitDy=0;entryX=0;entryY=0;entryDx=0;entryDy=0;fillColor=#dae8fc;strokeColor=#6c8ebf;" edge="1" parent="uol41dG8jqTRSERNkFw_-1" source="uol41dG8jqTRSERNkFw_-3" target="uol41dG8jqTRSERNkFw_-7">
          <mxGeometry relative="1" as="geometry" />
        </mxCell>
        <mxCell id="uol41dG8jqTRSERNkFw_-3" value="1" style="rounded=0;whiteSpace=wrap;html=1;fontSize=14;fillColor=#f5f5f5;strokeColor=#666666;fontColor=#333333;" vertex="1" parent="uol41dG8jqTRSERNkFw_-1">
          <mxGeometry x="60" y="60" width="40" height="20" as="geometry" />
        </mxCell>
        <mxCell id="uol41dG8jqTRSERNkFw_-4" value="3" style="rounded=0;whiteSpace=wrap;html=1;fontSize=14;fillColor=#dae8fc;strokeColor=#6c8ebf;fontColor=#333333;" vertex="1" parent="uol41dG8jqTRSERNkFw_-1">
          <mxGeometry x="60" y="80" width="40" height="20" as="geometry" />
        </mxCell>
        <mxCell id="uol41dG8jqTRSERNkFw_-5" value="4" style="rounded=0;whiteSpace=wrap;html=1;fontSize=14;fillColor=#f5f5f5;strokeColor=#666666;fontColor=#333333;" vertex="1" parent="uol41dG8jqTRSERNkFw_-1">
          <mxGeometry x="60" y="100" width="40" height="20" as="geometry" />
        </mxCell>
        <mxCell id="uol41dG8jqTRSERNkFw_-6" value="5" style="rounded=0;whiteSpace=wrap;html=1;fillColor=#f5f5f5;strokeColor=#666666;fontColor=#333333;" vertex="1" parent="uol41dG8jqTRSERNkFw_-1">
          <mxGeometry x="140" y="60" width="40" height="20" as="geometry" />
        </mxCell>
        <mxCell id="uol41dG8jqTRSERNkFw_-7" value="0" style="rounded=0;whiteSpace=wrap;html=1;fillColor=#f5f5f5;strokeColor=#666666;fontColor=#333333;" vertex="1" parent="uol41dG8jqTRSERNkFw_-1">
          <mxGeometry x="180" y="60" width="40" height="20" as="geometry" />
        </mxCell>
        <mxCell id="uol41dG8jqTRSERNkFw_-8" value="6" style="rounded=0;whiteSpace=wrap;html=1;fontSize=14;fillColor=#f5f5f5;strokeColor=#666666;fontColor=#333333;" vertex="1" parent="uol41dG8jqTRSERNkFw_-1">
          <mxGeometry x="260" y="60" width="40" height="40" as="geometry" />
        </mxCell>
        <mxCell id="uol41dG8jqTRSERNkFw_-9" value="m" style="text;html=1;align=center;verticalAlign=middle;whiteSpace=wrap;rounded=0;fontSize=10;" vertex="1" parent="uol41dG8jqTRSERNkFw_-1">
          <mxGeometry x="260" y="100" width="40" height="20" as="geometry" />
        </mxCell>
        <mxCell id="uol41dG8jqTRSERNkFw_-10" value="indices" style="text;html=1;align=center;verticalAlign=middle;whiteSpace=wrap;rounded=0;fontSize=10;" vertex="1" parent="uol41dG8jqTRSERNkFw_-1">
          <mxGeometry x="140" y="100" width="80" height="20" as="geometry" />
        </mxCell>
        <mxCell id="uol41dG8jqTRSERNkFw_-11" value="nums" style="text;html=1;align=center;verticalAlign=middle;whiteSpace=wrap;rounded=0;fontSize=10;" vertex="1" parent="uol41dG8jqTRSERNkFw_-1">
          <mxGeometry x="60" y="160" width="40" height="20" as="geometry" />
        </mxCell>
        <mxCell id="uol41dG8jqTRSERNkFw_-12" value="5" style="rounded=0;whiteSpace=wrap;html=1;fontSize=14;fillColor=#f5f5f5;strokeColor=#666666;fontColor=#333333;" vertex="1" parent="uol41dG8jqTRSERNkFw_-1">
          <mxGeometry x="60" y="120" width="40" height="20" as="geometry" />
        </mxCell>
        <mxCell id="uol41dG8jqTRSERNkFw_-13" value="6" style="rounded=0;whiteSpace=wrap;html=1;fontSize=14;fillColor=#f5f5f5;strokeColor=#666666;fontColor=#333333;" vertex="1" parent="uol41dG8jqTRSERNkFw_-1">
          <mxGeometry x="60" y="140" width="40" height="20" as="geometry" />
        </mxCell>
        <mxCell id="uol41dG8jqTRSERNkFw_-14" value="0" style="text;html=1;align=center;verticalAlign=middle;whiteSpace=wrap;rounded=0;fontSize=10;" vertex="1" parent="uol41dG8jqTRSERNkFw_-1">
          <mxGeometry x="40" y="60" width="20" height="20" as="geometry" />
        </mxCell>
        <mxCell id="uol41dG8jqTRSERNkFw_-15" value="1" style="text;html=1;align=center;verticalAlign=middle;whiteSpace=wrap;rounded=0;fontSize=10;" vertex="1" parent="uol41dG8jqTRSERNkFw_-1">
          <mxGeometry x="40" y="80" width="20" height="20" as="geometry" />
        </mxCell>
        <mxCell id="uol41dG8jqTRSERNkFw_-16" value="2" style="text;html=1;align=center;verticalAlign=middle;whiteSpace=wrap;rounded=0;fontSize=10;" vertex="1" parent="uol41dG8jqTRSERNkFw_-1">
          <mxGeometry x="40" y="100" width="20" height="20" as="geometry" />
        </mxCell>
        <mxCell id="uol41dG8jqTRSERNkFw_-17" value="3" style="text;html=1;align=center;verticalAlign=middle;whiteSpace=wrap;rounded=0;fontSize=10;" vertex="1" parent="uol41dG8jqTRSERNkFw_-1">
          <mxGeometry x="40" y="120" width="20" height="20" as="geometry" />
        </mxCell>
        <mxCell id="uol41dG8jqTRSERNkFw_-18" value="4" style="text;html=1;align=center;verticalAlign=middle;whiteSpace=wrap;rounded=0;fontSize=10;" vertex="1" parent="uol41dG8jqTRSERNkFw_-1">
          <mxGeometry x="40" y="140" width="20" height="20" as="geometry" />
        </mxCell>
        <mxCell id="QIXajYMGRiA3eG9aM-Gm-1" value="3" style="rounded=0;whiteSpace=wrap;html=1;fillColor=#dae8fc;strokeColor=#6c8ebf;fontColor=#333333;" vertex="1" parent="uol41dG8jqTRSERNkFw_-1">
          <mxGeometry x="140" y="80" width="40" height="20" as="geometry" />
        </mxCell>
        <mxCell id="QIXajYMGRiA3eG9aM-Gm-2" value="1" style="rounded=0;whiteSpace=wrap;html=1;fillColor=#d5e8d4;strokeColor=#82b366;fontColor=#333333;" vertex="1" parent="uol41dG8jqTRSERNkFw_-1">
          <mxGeometry x="180" y="80" width="40" height="20" as="geometry" />
        </mxCell>
      </root>
    </mxGraphModel>
  </diagram>
  <diagram name="3" id="lJo6IvKb6EwDXm9o4l7W">
    <mxGraphModel dx="691" dy="410" grid="1" gridSize="10" guides="1" tooltips="1" connect="1" arrows="1" fold="1" page="1" pageScale="1" pageWidth="340" pageHeight="220" math="0" shadow="0">
      <root>
        <mxCell id="6jCByKO1qrH8etzgY2yF-0" />
        <mxCell id="6jCByKO1qrH8etzgY2yF-1" parent="6jCByKO1qrH8etzgY2yF-0" />
        <mxCell id="6jCByKO1qrH8etzgY2yF-2" value="&lt;font style=&quot;font-size: 10px;&quot;&gt;6 - 4&lt;/font&gt;" style="edgeStyle=orthogonalEdgeStyle;rounded=0;orthogonalLoop=1;jettySize=auto;html=1;exitX=0.5;exitY=0;exitDx=0;exitDy=0;entryX=0;entryY=0;entryDx=0;entryDy=0;fillColor=#dae8fc;strokeColor=#6c8ebf;" edge="1" parent="6jCByKO1qrH8etzgY2yF-1" source="6jCByKO1qrH8etzgY2yF-3" target="6jCByKO1qrH8etzgY2yF-7">
          <mxGeometry relative="1" as="geometry">
            <mxPoint as="offset" />
          </mxGeometry>
        </mxCell>
        <mxCell id="6jCByKO1qrH8etzgY2yF-3" value="1" style="rounded=0;whiteSpace=wrap;html=1;fontSize=14;fillColor=#f5f5f5;strokeColor=#666666;fontColor=#333333;" vertex="1" parent="6jCByKO1qrH8etzgY2yF-1">
          <mxGeometry x="60" y="60" width="40" height="20" as="geometry" />
        </mxCell>
        <mxCell id="6jCByKO1qrH8etzgY2yF-4" value="3" style="rounded=0;whiteSpace=wrap;html=1;fontSize=14;fillColor=#f5f5f5;strokeColor=#666666;fontColor=#333333;" vertex="1" parent="6jCByKO1qrH8etzgY2yF-1">
          <mxGeometry x="60" y="80" width="40" height="20" as="geometry" />
        </mxCell>
        <mxCell id="6jCByKO1qrH8etzgY2yF-5" value="4" style="rounded=0;whiteSpace=wrap;html=1;fontSize=14;fillColor=#dae8fc;strokeColor=#6c8ebf;fontColor=#333333;" vertex="1" parent="6jCByKO1qrH8etzgY2yF-1">
          <mxGeometry x="60" y="100" width="40" height="20" as="geometry" />
        </mxCell>
        <mxCell id="6jCByKO1qrH8etzgY2yF-6" value="5" style="rounded=0;whiteSpace=wrap;html=1;fillColor=#f5f5f5;strokeColor=#666666;fontColor=#333333;" vertex="1" parent="6jCByKO1qrH8etzgY2yF-1">
          <mxGeometry x="140" y="60" width="40" height="20" as="geometry" />
        </mxCell>
        <mxCell id="6jCByKO1qrH8etzgY2yF-7" value="0" style="rounded=0;whiteSpace=wrap;html=1;fillColor=#f5f5f5;strokeColor=#666666;fontColor=#333333;" vertex="1" parent="6jCByKO1qrH8etzgY2yF-1">
          <mxGeometry x="180" y="60" width="40" height="20" as="geometry" />
        </mxCell>
        <mxCell id="6jCByKO1qrH8etzgY2yF-8" value="6" style="rounded=0;whiteSpace=wrap;html=1;fontSize=14;fillColor=#f5f5f5;strokeColor=#666666;fontColor=#333333;" vertex="1" parent="6jCByKO1qrH8etzgY2yF-1">
          <mxGeometry x="260" y="60" width="40" height="40" as="geometry" />
        </mxCell>
        <mxCell id="6jCByKO1qrH8etzgY2yF-9" value="m" style="text;html=1;align=center;verticalAlign=middle;whiteSpace=wrap;rounded=0;fontSize=10;" vertex="1" parent="6jCByKO1qrH8etzgY2yF-1">
          <mxGeometry x="260" y="100" width="40" height="20" as="geometry" />
        </mxCell>
        <mxCell id="6jCByKO1qrH8etzgY2yF-10" value="indices" style="text;html=1;align=center;verticalAlign=middle;whiteSpace=wrap;rounded=0;fontSize=10;" vertex="1" parent="6jCByKO1qrH8etzgY2yF-1">
          <mxGeometry x="140" y="120" width="80" height="20" as="geometry" />
        </mxCell>
        <mxCell id="6jCByKO1qrH8etzgY2yF-11" value="nums" style="text;html=1;align=center;verticalAlign=middle;whiteSpace=wrap;rounded=0;fontSize=10;" vertex="1" parent="6jCByKO1qrH8etzgY2yF-1">
          <mxGeometry x="60" y="160" width="40" height="20" as="geometry" />
        </mxCell>
        <mxCell id="6jCByKO1qrH8etzgY2yF-12" value="5" style="rounded=0;whiteSpace=wrap;html=1;fontSize=14;fillColor=#f5f5f5;strokeColor=#666666;fontColor=#333333;" vertex="1" parent="6jCByKO1qrH8etzgY2yF-1">
          <mxGeometry x="60" y="120" width="40" height="20" as="geometry" />
        </mxCell>
        <mxCell id="6jCByKO1qrH8etzgY2yF-13" value="6" style="rounded=0;whiteSpace=wrap;html=1;fontSize=14;fillColor=#f5f5f5;strokeColor=#666666;fontColor=#333333;" vertex="1" parent="6jCByKO1qrH8etzgY2yF-1">
          <mxGeometry x="60" y="140" width="40" height="20" as="geometry" />
        </mxCell>
        <mxCell id="6jCByKO1qrH8etzgY2yF-14" value="0" style="text;html=1;align=center;verticalAlign=middle;whiteSpace=wrap;rounded=0;fontSize=10;" vertex="1" parent="6jCByKO1qrH8etzgY2yF-1">
          <mxGeometry x="40" y="60" width="20" height="20" as="geometry" />
        </mxCell>
        <mxCell id="6jCByKO1qrH8etzgY2yF-15" value="1" style="text;html=1;align=center;verticalAlign=middle;whiteSpace=wrap;rounded=0;fontSize=10;" vertex="1" parent="6jCByKO1qrH8etzgY2yF-1">
          <mxGeometry x="40" y="80" width="20" height="20" as="geometry" />
        </mxCell>
        <mxCell id="6jCByKO1qrH8etzgY2yF-16" value="2" style="text;html=1;align=center;verticalAlign=middle;whiteSpace=wrap;rounded=0;fontSize=10;" vertex="1" parent="6jCByKO1qrH8etzgY2yF-1">
          <mxGeometry x="40" y="100" width="20" height="20" as="geometry" />
        </mxCell>
        <mxCell id="6jCByKO1qrH8etzgY2yF-17" value="3" style="text;html=1;align=center;verticalAlign=middle;whiteSpace=wrap;rounded=0;fontSize=10;" vertex="1" parent="6jCByKO1qrH8etzgY2yF-1">
          <mxGeometry x="40" y="120" width="20" height="20" as="geometry" />
        </mxCell>
        <mxCell id="6jCByKO1qrH8etzgY2yF-18" value="4" style="text;html=1;align=center;verticalAlign=middle;whiteSpace=wrap;rounded=0;fontSize=10;" vertex="1" parent="6jCByKO1qrH8etzgY2yF-1">
          <mxGeometry x="40" y="140" width="20" height="20" as="geometry" />
        </mxCell>
        <mxCell id="6jCByKO1qrH8etzgY2yF-19" value="2" style="rounded=0;whiteSpace=wrap;html=1;fillColor=#dae8fc;strokeColor=#6c8ebf;fontColor=#333333;" vertex="1" parent="6jCByKO1qrH8etzgY2yF-1">
          <mxGeometry x="140" y="100" width="40" height="20" as="geometry" />
        </mxCell>
        <mxCell id="6jCByKO1qrH8etzgY2yF-20" value="1" style="rounded=0;whiteSpace=wrap;html=1;fillColor=#d5e8d4;strokeColor=#82b366;fontColor=#333333;" vertex="1" parent="6jCByKO1qrH8etzgY2yF-1">
          <mxGeometry x="180" y="100" width="40" height="20" as="geometry" />
        </mxCell>
        <mxCell id="DmcaAO3FJpVP3GT4KEou-0" value="1" style="rounded=0;whiteSpace=wrap;html=1;fillColor=#f5f5f5;strokeColor=#666666;fontColor=#333333;" vertex="1" parent="6jCByKO1qrH8etzgY2yF-1">
          <mxGeometry x="180" y="80" width="40" height="20" as="geometry" />
        </mxCell>
        <mxCell id="DmcaAO3FJpVP3GT4KEou-1" value="3" style="rounded=0;whiteSpace=wrap;html=1;fillColor=#f5f5f5;strokeColor=#666666;fontColor=#333333;" vertex="1" parent="6jCByKO1qrH8etzgY2yF-1">
          <mxGeometry x="140" y="80" width="40" height="20" as="geometry" />
        </mxCell>
      </root>
    </mxGraphModel>
  </diagram>
  <diagram name="4" id="EAr-G96sEL48wrd8swd-">
    <mxGraphModel dx="988" dy="586" grid="1" gridSize="10" guides="1" tooltips="1" connect="1" arrows="1" fold="1" page="1" pageScale="1" pageWidth="280" pageHeight="240" math="0" shadow="0">
      <root>
        <mxCell id="MeAs6AFloD6aNDIv_oTu-0" />
        <mxCell id="MeAs6AFloD6aNDIv_oTu-1" parent="MeAs6AFloD6aNDIv_oTu-0" />
        <mxCell id="MeAs6AFloD6aNDIv_oTu-2" value="&lt;font style=&quot;font-size: 10px;&quot;&gt;5 == 5&lt;/font&gt;" style="edgeStyle=orthogonalEdgeStyle;rounded=0;orthogonalLoop=1;jettySize=auto;html=1;exitX=0.5;exitY=0;exitDx=0;exitDy=0;entryX=0;entryY=0;entryDx=0;entryDy=0;fillColor=#dae8fc;strokeColor=#6c8ebf;" edge="1" parent="MeAs6AFloD6aNDIv_oTu-1" source="MeAs6AFloD6aNDIv_oTu-3" target="MeAs6AFloD6aNDIv_oTu-7">
          <mxGeometry relative="1" as="geometry">
            <mxPoint as="offset" />
          </mxGeometry>
        </mxCell>
        <mxCell id="MeAs6AFloD6aNDIv_oTu-3" value="1" style="rounded=0;whiteSpace=wrap;html=1;fontSize=14;fillColor=#f5f5f5;strokeColor=#666666;fontColor=#333333;" vertex="1" parent="MeAs6AFloD6aNDIv_oTu-1">
          <mxGeometry x="60" y="60" width="40" height="20" as="geometry" />
        </mxCell>
        <mxCell id="MeAs6AFloD6aNDIv_oTu-4" value="3" style="rounded=0;whiteSpace=wrap;html=1;fontSize=14;fillColor=#f5f5f5;strokeColor=#666666;fontColor=#333333;" vertex="1" parent="MeAs6AFloD6aNDIv_oTu-1">
          <mxGeometry x="60" y="80" width="40" height="20" as="geometry" />
        </mxCell>
        <mxCell id="MeAs6AFloD6aNDIv_oTu-5" value="4" style="rounded=0;whiteSpace=wrap;html=1;fontSize=14;fillColor=#f5f5f5;strokeColor=#666666;fontColor=#333333;" vertex="1" parent="MeAs6AFloD6aNDIv_oTu-1">
          <mxGeometry x="60" y="100" width="40" height="20" as="geometry" />
        </mxCell>
        <mxCell id="MeAs6AFloD6aNDIv_oTu-6" value="5" style="rounded=0;whiteSpace=wrap;html=1;fillColor=#dae8fc;strokeColor=#6c8ebf;fontColor=#333333;" vertex="1" parent="MeAs6AFloD6aNDIv_oTu-1">
          <mxGeometry x="140" y="60" width="40" height="20" as="geometry" />
        </mxCell>
        <mxCell id="XTT2L2G1cgdEymZ4K0kA-2" value="&lt;font style=&quot;font-size: 10px;&quot;&gt;0 + 1&lt;/font&gt;" style="edgeStyle=orthogonalEdgeStyle;rounded=0;orthogonalLoop=1;jettySize=auto;html=1;exitX=1;exitY=0.5;exitDx=0;exitDy=0;entryX=1;entryY=0.5;entryDx=0;entryDy=0;fillColor=#ffe6cc;strokeColor=#d79b00;" edge="1" parent="MeAs6AFloD6aNDIv_oTu-1" source="MeAs6AFloD6aNDIv_oTu-7" target="XTT2L2G1cgdEymZ4K0kA-0">
          <mxGeometry relative="1" as="geometry" />
        </mxCell>
        <mxCell id="MeAs6AFloD6aNDIv_oTu-7" value="0" style="rounded=0;whiteSpace=wrap;html=1;fillColor=#ffe6cc;strokeColor=#d79b00;fontColor=#333333;" vertex="1" parent="MeAs6AFloD6aNDIv_oTu-1">
          <mxGeometry x="180" y="60" width="40" height="20" as="geometry" />
        </mxCell>
        <mxCell id="MeAs6AFloD6aNDIv_oTu-10" value="indices" style="text;html=1;align=center;verticalAlign=middle;whiteSpace=wrap;rounded=0;fontSize=10;" vertex="1" parent="MeAs6AFloD6aNDIv_oTu-1">
          <mxGeometry x="140" y="120" width="80" height="20" as="geometry" />
        </mxCell>
        <mxCell id="MeAs6AFloD6aNDIv_oTu-11" value="nums" style="text;html=1;align=center;verticalAlign=middle;whiteSpace=wrap;rounded=0;fontSize=10;" vertex="1" parent="MeAs6AFloD6aNDIv_oTu-1">
          <mxGeometry x="60" y="160" width="40" height="20" as="geometry" />
        </mxCell>
        <mxCell id="XTT2L2G1cgdEymZ4K0kA-3" value="&lt;font style=&quot;font-size: 10px;&quot;&gt;3 + 1&lt;/font&gt;" style="edgeStyle=orthogonalEdgeStyle;rounded=0;orthogonalLoop=1;jettySize=auto;html=1;exitX=1;exitY=0.5;exitDx=0;exitDy=0;entryX=0;entryY=0.5;entryDx=0;entryDy=0;fillColor=#dae8fc;strokeColor=#6c8ebf;" edge="1" parent="MeAs6AFloD6aNDIv_oTu-1" source="MeAs6AFloD6aNDIv_oTu-12" target="XTT2L2G1cgdEymZ4K0kA-1">
          <mxGeometry relative="1" as="geometry">
            <mxPoint as="offset" />
          </mxGeometry>
        </mxCell>
        <mxCell id="MeAs6AFloD6aNDIv_oTu-12" value="5" style="rounded=0;whiteSpace=wrap;html=1;fontSize=14;fillColor=#dae8fc;strokeColor=#6c8ebf;fontColor=#333333;" vertex="1" parent="MeAs6AFloD6aNDIv_oTu-1">
          <mxGeometry x="60" y="120" width="40" height="20" as="geometry" />
        </mxCell>
        <mxCell id="MeAs6AFloD6aNDIv_oTu-13" value="6" style="rounded=0;whiteSpace=wrap;html=1;fontSize=14;fillColor=#f5f5f5;strokeColor=#666666;fontColor=#333333;" vertex="1" parent="MeAs6AFloD6aNDIv_oTu-1">
          <mxGeometry x="60" y="140" width="40" height="20" as="geometry" />
        </mxCell>
        <mxCell id="MeAs6AFloD6aNDIv_oTu-14" value="0" style="text;html=1;align=center;verticalAlign=middle;whiteSpace=wrap;rounded=0;fontSize=10;" vertex="1" parent="MeAs6AFloD6aNDIv_oTu-1">
          <mxGeometry x="40" y="60" width="20" height="20" as="geometry" />
        </mxCell>
        <mxCell id="MeAs6AFloD6aNDIv_oTu-15" value="1" style="text;html=1;align=center;verticalAlign=middle;whiteSpace=wrap;rounded=0;fontSize=10;" vertex="1" parent="MeAs6AFloD6aNDIv_oTu-1">
          <mxGeometry x="40" y="80" width="20" height="20" as="geometry" />
        </mxCell>
        <mxCell id="MeAs6AFloD6aNDIv_oTu-16" value="2" style="text;html=1;align=center;verticalAlign=middle;whiteSpace=wrap;rounded=0;fontSize=10;" vertex="1" parent="MeAs6AFloD6aNDIv_oTu-1">
          <mxGeometry x="40" y="100" width="20" height="20" as="geometry" />
        </mxCell>
        <mxCell id="MeAs6AFloD6aNDIv_oTu-17" value="3" style="text;html=1;align=center;verticalAlign=middle;whiteSpace=wrap;rounded=0;fontSize=10;" vertex="1" parent="MeAs6AFloD6aNDIv_oTu-1">
          <mxGeometry x="40" y="120" width="20" height="20" as="geometry" />
        </mxCell>
        <mxCell id="MeAs6AFloD6aNDIv_oTu-18" value="4" style="text;html=1;align=center;verticalAlign=middle;whiteSpace=wrap;rounded=0;fontSize=10;" vertex="1" parent="MeAs6AFloD6aNDIv_oTu-1">
          <mxGeometry x="40" y="140" width="20" height="20" as="geometry" />
        </mxCell>
        <mxCell id="MeAs6AFloD6aNDIv_oTu-19" value="2" style="rounded=0;whiteSpace=wrap;html=1;fillColor=#f5f5f5;strokeColor=#666666;fontColor=#333333;" vertex="1" parent="MeAs6AFloD6aNDIv_oTu-1">
          <mxGeometry x="140" y="100" width="40" height="20" as="geometry" />
        </mxCell>
        <mxCell id="MeAs6AFloD6aNDIv_oTu-20" value="1" style="rounded=0;whiteSpace=wrap;html=1;fillColor=#f5f5f5;strokeColor=#666666;fontColor=#333333;" vertex="1" parent="MeAs6AFloD6aNDIv_oTu-1">
          <mxGeometry x="180" y="100" width="40" height="20" as="geometry" />
        </mxCell>
        <mxCell id="MeAs6AFloD6aNDIv_oTu-21" value="1" style="rounded=0;whiteSpace=wrap;html=1;fillColor=#f5f5f5;strokeColor=#666666;fontColor=#333333;" vertex="1" parent="MeAs6AFloD6aNDIv_oTu-1">
          <mxGeometry x="180" y="80" width="40" height="20" as="geometry" />
        </mxCell>
        <mxCell id="MeAs6AFloD6aNDIv_oTu-22" value="3" style="rounded=0;whiteSpace=wrap;html=1;fillColor=#f5f5f5;strokeColor=#666666;fontColor=#333333;" vertex="1" parent="MeAs6AFloD6aNDIv_oTu-1">
          <mxGeometry x="140" y="80" width="40" height="20" as="geometry" />
        </mxCell>
        <mxCell id="XTT2L2G1cgdEymZ4K0kA-0" value="1" style="rounded=0;whiteSpace=wrap;html=1;fillColor=#ffe6cc;strokeColor=#d79b00;fontColor=#333333;" vertex="1" parent="MeAs6AFloD6aNDIv_oTu-1">
          <mxGeometry x="180" y="160" width="40" height="20" as="geometry" />
        </mxCell>
        <mxCell id="XTT2L2G1cgdEymZ4K0kA-1" value="4" style="rounded=0;whiteSpace=wrap;html=1;fontSize=14;fillColor=#d5e8d4;strokeColor=#82b366;fontColor=#333333;" vertex="1" parent="MeAs6AFloD6aNDIv_oTu-1">
          <mxGeometry x="180" y="180" width="40" height="20" as="geometry" />
        </mxCell>
      </root>
    </mxGraphModel>
  </diagram>
</mxfile>
